Coordinates
version=1
nRows=11
nColumns=36
inDegrees=yes

Units are S.I. units (second, meters, Newtons, ...)
If the header above contains a line with 'inDegrees', this indicates whether rotational values are in degrees (yes) or radians (no).

endheader
time	pelvis_tilt	pelvis_list	pelvis_rotation	pelvis_tx	pelvis_ty	pelvis_tz	hip_flexion_r	hip_adduction_r	hip_rotation_r	knee_angle_r	knee_angle_r_beta	ankle_angle_r	subtalar_angle_r	mtp_angle_r	hip_flexion_l	hip_adduction_l	hip_rotation_l	knee_angle_l	knee_angle_l_beta	ankle_angle_l	subtalar_angle_l	mtp_angle_l	lumbar_extension	lumbar_bending	lumbar_rotation	arm_flex_r	arm_add_r	arm_rot_r	elbow_flex_r	pro_sup_r	arm_flex_l	arm_add_l	arm_rot_l	elbow_flex_l	pro_sup_l
      0.00000000	      3.73186626	     -0.00801363	      5.25554501	      1.11174762	      0.94413560	      0.76727028	     -7.82369109	      0.40049888	      3.51441714	     41.09502822	      0.71724355	     -3.51753266	     -6.06275775	     -6.73856660	     16.28295933	      1.87412891	      4.50218653	     25.18169631	      0.43950351	      3.14007522	    -10.43117696	     -6.73856660	    -18.10714782	     -1.06789231	      6.94221890	      4.03373272	    -10.89551333	      1.30520453	     25.33520345	     83.65901055	      7.74178520	    -10.85983290	      3.01523401	     13.77255035	     79.95102084
      0.01666670	      2.20017493	     -0.48147140	      4.20693356	      1.11706228	      0.93949722	      0.76570818	     -3.32569629	      0.61239298	      4.62056664	     46.06538746	      0.80399268	     -5.50452935	     -7.18314622	     -6.75156422	     16.44401066	      1.79722537	      5.64243653	     25.21164511	      0.44002622	      3.26831653	    -10.61004074	     -6.75156422	    -17.19446257	     -1.07651229	      8.40815644	      3.06291968	    -11.46489793	      1.13061975	     25.20890054	     81.68195175	      8.20499454	    -10.11953038	      1.60952471	     11.49265294	     78.48001980
      0.03333330	      1.54686257	     -0.27372615	      3.48894157	      1.11928410	      0.94048489	      0.76497499	      0.15543060	      0.24067145	      5.21734864	     50.83463059	      0.88723168	     -7.89828086	     -7.67440636	     -6.78588864	     15.48352712	      2.03871394	      5.69736064	     24.28004845	      0.42376679	      4.16301012	    -10.08751818	     -6.78588864	    -16.44976670	     -1.34707148	      8.28456516	      3.51399058	    -11.27003285	      1.09039166	     24.35488844	     81.23600155	      8.12265520	    -10.15823183	      0.74886199	     10.10007444	     78.28729307
      0.05000000	      0.95845486	     -0.29319599	      2.76026741	      1.11941765	      0.94082285	      0.76550755	      3.36008430	     -0.01081536	      5.08959205	     54.68388447	      0.95441383	     -8.79572843	     -7.97416446	     -6.80567523	     14.52194371	      1.73340424	      5.28097262	     23.31977824	      0.40700691	      5.28184345	     -9.83095328	     -6.80567523	    -15.90085585	     -1.48079559	      8.18475841	      3.67068281	    -11.03605215	      1.06212895	     23.71252496	     80.90313879	      7.99343656	    -10.41726726	      0.11497360	      9.54079224	     78.03355459
      0.06666670	      0.21461328	     -0.60423044	      2.01324708	      1.11668782	      0.94030291	      0.76557437	      6.83051593	      0.09971623	      4.88285550	     57.73429223	      1.00765349	     -8.25433584	     -9.14448654	     -6.84675240	     13.96712229	      1.09572202	      4.51488520	     22.67613046	      0.39577314	      6.60096852	     -9.22696006	     -6.84675240	    -15.26691373	     -1.33430495	      8.01967074	      3.97961016	    -10.73743096	      1.11112855	     22.90132278	     80.12365772	      7.96301053	    -10.57036345	     -0.96228300	      9.73120252	     77.42388528
      0.08333330	     -0.23284007	     -0.81051060	      1.36178994	      1.11391453	      0.94039173	      0.76398201	      9.89569479	     -0.07129432	      4.68315797	     59.41050700	      1.03690896	     -6.33674460	    -10.81459283	     -6.88529208	     13.16152841	      0.64348268	      3.80380569	     22.12961396	      0.38623463	      7.40071838	     -8.87550942	     -6.88529208	    -15.11007968	     -1.16482250	      7.44717383	      4.20101752	    -10.48815748	      1.26172335	     23.15466039	     78.75469168	      7.86160380	    -10.71406967	     -1.68442536	     10.92697633	     76.32572843
      0.10000000	     -0.58663401	     -0.98505435	      0.65119813	      1.11296503	      0.94174249	      0.76208948	     12.63607799	     -0.34864931	      4.70188625	     59.82110375	      1.04407522	     -4.36705438	    -12.84195042	     -6.95391016	     12.27899724	      0.27119347	      2.93636697	     21.71810640	      0.37905246	      8.21274227	     -8.23524212	     -6.95391016	    -15.00182645	     -1.02461657	      7.08077388	      4.26784714	    -10.39059366	      1.59446838	     23.70693957	     77.24720671	      7.90540351	    -10.83395028	     -1.44527057	     12.51828166	     75.30643078
      0.11666670	     -0.81703799	     -1.16896630	      0.05597754	      1.11291356	      0.94379130	      0.76100674	     14.93209253	     -0.63240997	      4.74884196	     59.09058609	      1.03132528	     -3.10231507	    -14.78112169	     -6.99538641	     11.21670181	      0.01264032	      2.38482418	     21.31082826	      0.37194412	      8.72393022	     -8.04907942	     -6.99538641	    -14.98553881	     -0.80366067	      6.55535368	      4.20337520	    -10.37287770	      1.78146189	     24.67729269	     75.67442915	      7.93425308	    -10.85202899	     -1.24310217	     14.21060206	     74.03785916
      0.13333330	     -0.83917728	     -1.53825737	     -0.37691380	      1.11144994	      0.94660422	      0.76094573	     16.69293614	     -0.70431912	      4.58988717	     57.41330629	      1.00205123	     -2.08944521	    -15.79044382	     -7.00755533	      9.90176666	     -0.42157197	      1.90116723	     20.80405510	      0.36309926	      9.34666472	     -7.43061357	     -7.00755533	    -15.17929576	     -0.33159571	      5.66434136	      4.63908019	    -10.41975543	      2.63251963	     24.74954821	     75.62040750	      7.85713816	    -10.99501019	     -0.48170542	     15.83920159	     74.29019650
      0.15000000	     -0.94976202	     -1.89565898	     -0.79312264	      1.10749966	      0.94916818	      0.76194625	     18.36145619	     -0.66703307	      4.37557218	     55.15753012	      0.96268051	     -1.46059176	    -16.51119291	     -7.02235581	      8.70013835	     -0.81940453	      1.65860255	     20.12967929	      0.35132918	      9.61768890	     -7.38152572	     -7.02235581	    -15.41165438	      0.06174065	      4.89961745	      4.95132520	    -10.54832990	      3.60235144	     25.00470471	     75.50815408	      8.07853702	    -11.19402993	      0.31545163	     17.05679814	     74.53487011
      0.16666670	     -0.98461329	     -2.26499133	     -1.21586409	      1.10231279	      0.95128445	      0.76306761	     19.69885849	     -0.53041306	      4.04083902	     52.18677732	      0.91083109	     -1.14798115	    -16.97549069	     -7.03555592	      7.49820265	     -1.28377716	      1.33803440	     19.32615442	      0.33730503	      9.94186093	     -6.98134050	     -7.03555592	    -15.95528613	      0.46134806	      4.27213314	      5.19504324	    -10.77409035	      4.15564390	     25.56282228	     75.45400574	      8.60603782	    -11.43248631	      1.00743087	     18.12674283	     74.81237659
